<svg width="18" height="20" viewBox="0 0 18 20" xmlns="http://www.w3.org/2000/svg"><title>85C22986-3DD6-441A-88B9-CB2C49E4BE9F</title><path d="M17.086 2.997c0-1.082-.882-1.97-1.97-1.994V1H2.999C1.897 1 1 1.889 1 2.982v16.53l6.237-4.123 6.238 4.123V9.138h3.61v-6.14zm-4.268 15.299l-5.58-3.69-5.581 3.69V2.982c0-.734.602-1.331 1.342-1.331h10.51c-.322.313-.552.72-.645 1.175v.001a2.21 2.21 0 0 0-.046.452v15.017zm3.611-9.809h-2.954V3.279c0-.111.011-.219.032-.323A1.645 1.645 0 0 1 14.731 1.7c.012-.003.022-.008.034-.01.08-.018.164-.024.247-.03.028-.001.054-.007.081-.008a1.355 1.355 0 0 1 1.336 1.344v5.49z" stroke="#FFF" stroke-width=".6" fill="#FFF" fill-rule="evenodd"/></svg>