<?xml version="1.0" encoding="UTF-8"?>
<svg width="16px" height="16px" viewBox="0 0 16 16" version="1.1" xmlns="http://www.w3.org/2000/svg" xmlns:xlink="http://www.w3.org/1999/xlink">
    <!-- Generator: sketchtool 55.2 (78181) - https://sketchapp.com -->
    <title>90148AD1-73C6-4052-883D-E750E2FBAC16@3x</title>
    <desc>Created with sketchtool.</desc>
    <g id="Page-1" stroke="none" stroke-width="1" fill="none" fill-rule="evenodd">
        <g id="RSS-Feeds" transform="translate(-395.000000, -1179.000000)" fill="#E0004A" fill-rule="nonzero">
            <g id="Group" transform="translate(151.000000, 1034.000000)">
                <g id="icon/ext" transform="translate(244.000000, 145.000000)">
                    <g id="icon">
                        <path d="M11.1428571,10.8984286 L11.1428571,12.9821429 C11.1428571,13.6222381 10.6222381,14.1428571 9.98214286,14.1428571 L3.01785714,14.1428571 C2.3777619,14.1428571 1.85714286,13.6222381 1.85714286,12.9821429 L1.85714286,6.01785714 C1.85714286,5.3777619 2.3777619,4.85714286 3.01785714,4.85714286 L5.14057143,4.85714286 L6.99833333,3 L3.01785714,3 C1.3507619,3 0,4.3507619 0,6.01785714 L0,12.9821429 C0,14.6492381 1.3507619,16 3.01785714,16 L9.98214286,16 C11.6492381,16 13,14.6492381 13,12.9821429 L13,9.04066667 L11.1428571,10.8984286 Z" id="Path"></path>
                        <path d="M13.8626848,0 L7.44948891,0 C6.27049608,0.00127897189 6.35238794,0.317860664 6.97439105,0.937313817 L8.98730564,2.94399305 L5.53659492,6.38339139 C4.8208225,7.09632339 4.82144763,8.25172193 5.53659492,8.96403073 L7.04315522,10.4665474 C7.75830251,11.1776098 8.91604096,11.178233 9.63118826,10.4659242 L13.081899,7.02590266 L15.0573058,8.99519035 C15.7455726,9.68070189 15.9993749,9.69877446 15.9993749,8.52343377 L16,2.13072709 C15.9993749,-0.0111848743 16.0150031,-0.00059060503 13.8626848,0 Z" id="Path"></path>
                    </g>
                </g>
            </g>
        </g>
    </g>
</svg>