<svg width="17" height="20" viewBox="0 0 17 20" xmlns="http://www.w3.org/2000/svg"><title>EE3D76EB-BBAA-408C-8E5C-7ECD351F27DD</title><g stroke="#FFF" stroke-width=".3" fill="#FFF" fill-rule="evenodd"><path d="M16.819 10.123a.328.328 0 0 0-.069-.35l-3.777-3.857a.31.31 0 0 0-.445 0 .326.326 0 0 0 0 .454l3.24 3.309H6.14a.318.318 0 0 0-.315.321c0 .178.141.321.315.321h9.63l-3.241 3.309a.326.326 0 0 0 0 .454.31.31 0 0 0 .445 0l3.777-3.856a.324.324 0 0 0 .069-.105z"/><path d="M11.176 11.607a.318.318 0 0 0-.315.322v6.428H.787V1.643h10.074V8.07c0 .178.141.322.315.322a.318.318 0 0 0 .315-.322v-6.75A.318.318 0 0 0 11.176 1H.473a.318.318 0 0 0-.315.321V18.68c0 .177.14.321.315.321h10.703a.318.318 0 0 0 .315-.321v-6.75a.318.318 0 0 0-.315-.322z"/></g></svg>