<svg width="16" height="20" viewBox="0 0 16 20" xmlns="http://www.w3.org/2000/svg"><title>16ADCC8D-6F45-4CD5-BAA8-191C86863923</title><g stroke="#FFF" stroke-width=".3" fill="#FFF" fill-rule="evenodd"><path d="M10.6 1H1.146v18h13.708V5.376L10.6 1zm.17 1.024L13.859 5.2h-3.087V2.024zM1.73 18.4V1.6h8.457v4.2h4.084v12.6H1.729z"/><path d="M4.063 6.1h2.625a.296.296 0 0 0 .291-.3c0-.166-.13-.3-.292-.3H4.063a.296.296 0 0 0-.291.3c0 .166.13.3.292.3zM9.02 12.1H4.064a.296.296 0 0 0-.292.3c0 .166.13.3.292.3H9.02a.296.296 0 0 0 .291-.3c0-.166-.13-.3-.291-.3zM11.938 10H9.896a.296.296 0 0 0-.292.3c0 .166.13.3.292.3h2.041a.296.296 0 0 0 .292-.3c0-.166-.13-.3-.291-.3zM4.063 8.5H5.52a.296.296 0 0 0 .292-.3c0-.166-.131-.3-.292-.3H4.063a.296.296 0 0 0-.292.3c0 .166.13.3.292.3zM8.438 8.5h2.041a.296.296 0 0 0 .292-.3c0-.166-.13-.3-.292-.3H8.438a.296.296 0 0 0-.292.3c0 .166.13.3.291.3zM6.688 8.2a.32.32 0 0 0 .084.213.302.302 0 0 0 .207.087.302.302 0 0 0 .207-.087.32.32 0 0 0 .085-.213.32.32 0 0 0-.085-.213.3.3 0 0 0-.414 0 .32.32 0 0 0-.085.213zM5.52 10a.296.296 0 0 0-.29.3c0 .166.13.3.29.3h2.918a.296.296 0 0 0 .291-.3c0-.166-.13-.3-.291-.3H5.52zM4.063 10.6a.302.302 0 0 0 .207-.087.32.32 0 0 0 .084-.213.32.32 0 0 0-.084-.213.3.3 0 0 0-.415 0 .313.313 0 0 0-.084.213.32.32 0 0 0 .084.213.302.302 0 0 0 .207.087zM11.938 14.2H9.896a.296.296 0 0 0-.292.3c0 .166.13.3.292.3h2.041a.296.296 0 0 0 .292-.3c0-.166-.13-.3-.291-.3zM8.438 14.2H5.52a.296.296 0 0 0-.292.3c0 .166.13.3.292.3h2.917a.296.296 0 0 0 .291-.3c0-.166-.13-.3-.291-.3zM3.855 14.287a.308.308 0 0 0 0 .426.302.302 0 0 0 .208.087.297.297 0 0 0 .207-.087.32.32 0 0 0 .084-.213.3.3 0 0 0-.084-.21.296.296 0 0 0-.415-.003zM11.73 7.987a.32.32 0 0 0-.084.213.32.32 0 0 0 .084.213.302.302 0 0 0 .207.087.302.302 0 0 0 .208-.087.307.307 0 0 0 .084-.213.306.306 0 0 0-.084-.213.3.3 0 0 0-.415 0zM10.686 12.613a.32.32 0 0 0 .085-.213.32.32 0 0 0-.085-.213.3.3 0 0 0-.414 0 .32.32 0 0 0-.085.213.32.32 0 0 0 .085.213.286.286 0 0 0 .207.087.297.297 0 0 0 .207-.087zM11.73 12.187a.32.32 0 0 0-.084.213.32.32 0 0 0 .084.213.297.297 0 0 0 .207.087.297.297 0 0 0 .208-.087.32.32 0 0 0 .084-.213.32.32 0 0 0-.084-.213.3.3 0 0 0-.415 0z"/></g></svg>