<svg color="red" width="27" height="27" viewBox="0 0 27 27" xmlns="http://www.w3.org/2000/svg"><title>E0469804-959C-419C-95C0-A8517897568F</title><path d="M25.778 24.725l-6.075-6.075a10.617 10.617 0 0 0 2.616-6.99C22.32 5.778 17.535 1 11.66 1 5.78 1 1 5.784 1 11.66c0 5.875 4.784 10.66 10.66 10.66 2.671 0 5.116-.987 6.99-2.617l6.075 6.075a.753.753 0 0 0 .527.222.75.75 0 0 0 .527-1.275zM2.491 11.66c0-5.056 4.113-9.163 9.163-9.163 5.056 0 9.163 4.113 9.163 9.163s-4.107 9.168-9.163 9.168c-5.05 0-9.163-4.113-9.163-9.168z" stroke="#FFF" fill="#FFF" fill-rule="evenodd"/></svg>
