<?xml version="1.0" encoding="UTF-8" standalone="no"?>
<!DOCTYPE svg PUBLIC "-//W3C//DTD SVG 1.1//EN" "http://www.w3.org/Graphics/SVG/1.1/DTD/svg11.dtd">
<svg width="100%" height="100%" viewBox="0 0 60 60" version="1.1" xmlns="http://www.w3.org/2000/svg" xmlns:xlink="http://www.w3.org/1999/xlink" xml:space="preserve" xmlns:serif="http://www.serif.com/" style="fill-rule:evenodd;clip-rule:evenodd;stroke-linejoin:round;stroke-miterlimit:2;">
    <g transform="matrix(1.06624,0,0,1.06624,-2.0031,-2.0047)">
        <path d="M30,21.3C29.938,21.304 29.865,21.305 29.794,21.305C27.982,21.305 26.512,19.835 26.512,18.024L26.512,17.959L26.512,17.962C26.511,17.927 26.511,17.885 26.511,17.842C26.511,16.031 27.981,14.561 29.792,14.561C29.865,14.561 29.938,14.563 30.009,14.569L30,14.569C30.075,14.563 30.163,14.559 30.251,14.559C32.115,14.559 33.626,16.07 33.626,17.934C33.626,19.798 32.115,21.309 30.251,21.309C30.163,21.309 30.075,21.305 29.989,21.3L30,21.3Z" style="fill:rgb(255,128,0);fill-rule:nonzero;"/>
    </g>
    <g transform="matrix(1.06624,0,0,1.06624,-2.0031,-2.0047)">
        <path d="M33.75,42.262C33.804,42.5 33.834,42.772 33.834,43.054C33.834,45.125 32.156,46.804 30.084,46.804C28.012,46.804 26.334,45.125 26.334,43.054C26.334,42.774 26.364,42.5 26.422,42.238L26.419,42.262L26.419,27.581C26.364,27.343 26.334,27.071 26.334,26.79C26.334,24.718 28.012,23.04 30.084,23.04C32.156,23.04 33.834,24.718 33.834,26.79C33.834,27.069 33.804,27.343 33.746,27.605L33.75,27.581L33.75,42.262Z" style="fill:rgb(255,128,0);fill-rule:nonzero;"/>
    </g>
    <g transform="matrix(1.06624,0,0,1.06624,-2.0031,-2.0047)">
        <path d="M49.875,10.125C44.786,5.045 37.762,1.903 30.004,1.903C14.471,1.903 1.879,14.495 1.879,30.028C1.879,45.56 14.471,58.153 30.004,58.153C37.762,58.153 44.788,55.01 49.875,49.931C54.973,44.84 58.129,37.802 58.129,30.028C58.129,22.254 54.975,15.215 49.875,10.125Z" style="fill:none;fill-rule:nonzero;"/>
    </g>
</svg>
