<svg width="91" height="91" viewBox="0 0 91 91" xmlns="http://www.w3.org/2000/svg"><title>4D1AB04C-567E-4784-AE86-099EFED1506D</title><g fill="#FFF" fill-rule="evenodd"><circle cx="22.75" cy="39.813" r="2.844"/><circle cx="45.5" cy="39.813" r="2.844"/><circle cx="68.25" cy="39.813" r="2.844"/><circle cx="22.75" cy="56.875" r="2.844"/><circle cx="68.25" cy="56.875" r="2.844"/><circle cx="68.25" cy="73.938" r="2.844"/><circle cx="45.5" cy="73.938" r="2.844"/><circle cx="22.75" cy="73.938" r="2.844"/><path d="M82.469 11.375h-8.532V5.687a5.688 5.688 0 0 0-11.374 0v5.688H28.437V5.687a5.688 5.688 0 0 0-11.375 0v5.688H8.532A8.532 8.532 0 0 0 0 19.906V82.47A8.532 8.532 0 0 0 8.531 91H82.47A8.532 8.532 0 0 0 91 82.469V19.906a8.532 8.532 0 0 0-8.531-8.531zM65.406 5.687a2.844 2.844 0 0 1 5.688 0v5.688h-5.688V5.687zm-45.5 0a2.844 2.844 0 0 1 5.688 0v5.688h-5.688V5.687zm68.25 73.938c0 .24-.016.476-.036.71v.002a7.11 7.11 0 0 1-7.783 7.783h-.001c-.235.02-.47.036-.711.036h-68.25c-.24 0-.476-.016-.71-.036h-.002a7.11 7.11 0 0 1-7.783-7.783v-.001a8.378 8.378 0 0 1-.036-.711V25.594h85.312v54.031zm0-56.875H2.844c0-.24.016-.476.036-.71v-.002a7.11 7.11 0 0 1 7.073-7.82h69.672c.24 0 .476.017.71.037h.002a7.11 7.11 0 0 1 7.783 7.783v.001c.02.235.036.47.036.711z"/><path d="M45.5 63.984a7.111 7.111 0 0 0 7.11-7.109 7.11 7.11 0 1 0-7.11 7.11zm0-11.375a4.267 4.267 0 0 1 4.266 4.266 4.267 4.267 0 1 1-4.266-4.266z"/></g></svg>