<svg width="73" height="79" viewBox="0 0 73 79" xmlns="http://www.w3.org/2000/svg"><title>BA3F9145-2B95-471F-9678-1723E460E439</title><g fill="#FFF" fill-rule="evenodd"><path d="M15.783 45.937H1.647c-.864 0-1.564.704-1.564 1.573v29.916c0 .87.7 1.574 1.564 1.574h14.136c.864 0 1.564-.705 1.564-1.574V47.51c0-.869-.7-1.573-1.564-1.573zM14.22 75.853H3.211V49.084H14.22v26.769zM71.353 20.762H57.217c-.864 0-1.564.704-1.564 1.573v55.091c0 .87.7 1.574 1.564 1.574h14.136c.864 0 1.564-.705 1.564-1.574v-55.09c0-.87-.7-1.574-1.564-1.574zm-1.564 55.09H58.78V23.91h11.008v51.944zM43.568 33.676H29.432c-.864 0-1.564.705-1.564 1.574v42.176c0 .87.7 1.574 1.564 1.574h14.136c.864 0 1.564-.705 1.564-1.574V35.25c0-.87-.7-1.574-1.564-1.574zm-1.564 42.177H30.996v-39.03h11.008v39.03zM65.412 2.22L58.232.066a1.563 1.563 0 0 0-1.946 1.059 1.575 1.575 0 0 0 1.052 1.957l3.318.995L35.42 21.44 7.776 33.312a1.577 1.577 0 0 0-.824 2.065 1.564 1.564 0 0 0 2.052.83L36.79 24.273c.094-.04.184-.09.269-.148l25.41-17.481-.899 3.035a1.575 1.575 0 0 0 1.5 2.024c.674 0 1.296-.442 1.498-1.125l1.897-6.4a1.575 1.575 0 0 0-1.052-1.958z"/></g></svg>