<svg width="103" height="83" viewBox="0 0 103 83" xmlns="http://www.w3.org/2000/svg"><title>14CFF910-2233-487D-B373-61A659C290B9</title><path d="M98.913 18.944L57.187 1.343a14.944 14.944 0 0 0-11.552.003L3.918 18.943C1.502 19.963 0 22.203 0 24.791c0 2.586 1.5 4.826 3.916 5.845l4.931 2.08c-.005.05-.008.1-.008.152v22.968c-1.906.634-3.283 2.41-3.283 4.497 0 1.21.464 2.315 1.224 3.155a5.01 5.01 0 0 0-1.514 3.157L4.084 79.436c-.08.874.218 1.747.819 2.395a3.21 3.21 0 0 0 2.348 1.019h6.254a3.21 3.21 0 0 0 2.348-1.02c.601-.647.9-1.52.819-2.394l-1.181-12.791a5.01 5.01 0 0 0-1.515-3.157 4.684 4.684 0 0 0 1.224-3.155c0-2.087-1.377-3.863-3.283-4.497V34.011l8.42 3.552c-.005.05-.008.1-.008.152v11.564c0 4.826 3.358 9.29 9.455 12.572 5.803 3.123 13.484 4.843 21.63 4.843 8.145 0 15.827-1.72 21.63-4.843 6.097-3.281 9.454-7.746 9.454-12.572V37.715c0-.052-.002-.102-.007-.152l16.419-6.926c2.417-1.02 3.918-3.26 3.918-5.848 0-2.586-1.5-4.826-3.915-5.845zM13.58 79.788c-.03.033-.064.033-.076.033H7.25c-.012 0-.045 0-.075-.033-.031-.033-.028-.065-.027-.077L8.33 66.919c.098-1.05.978-1.84 2.048-1.84s1.95.79 2.048 1.84l1.181 12.791a.093.093 0 0 1-.026.078zm-3.203-17.739c-.962 0-1.744-.77-1.744-1.716 0-.947.782-1.717 1.744-1.717s1.744.77 1.744 1.717c0 .946-.782 1.716-1.744 1.716zm69.043-19.232c0 3.916-3.275 7.74-8.985 10.49a1.504 1.504 0 0 0-.706 2.027 1.552 1.552 0 0 0 2.059.694c3.167-1.525 5.705-3.384 7.514-5.45-.577 3.193-3.272 6.213-7.735 8.616-5.358 2.883-12.515 4.471-20.154 4.471-7.638 0-14.795-1.588-20.154-4.471-4.447-2.394-7.139-5.4-7.729-8.582 1.556 1.765 3.654 3.379 6.253 4.777 5.803 3.123 13.485 4.843 21.63 4.843 2.279 0 4.552-.137 6.755-.406a1.52 1.52 0 0 0 1.338-1.689 1.533 1.533 0 0 0-1.717-1.317 52.8 52.8 0 0 1-6.376.383c-7.638 0-14.796-1.588-20.154-4.472-5.064-2.725-7.853-6.246-7.853-9.914v-3.96l22.235 9.38a14.859 14.859 0 0 0 5.77 1.16c1.972 0 3.944-.388 5.781-1.163l22.228-9.376v3.959zm18.277-14.964L55.98 45.45a11.807 11.807 0 0 1-9.127.003l-31.882-13.45 29.213-5c1.314 1.53 3.992 2.533 7.229 2.533 4.62 0 8.105-2.04 8.105-4.746 0-2.705-3.485-4.746-8.105-4.746-4.196 0-7.455 1.683-8.018 4.02L10.115 29.76a1.556 1.556 0 0 0-.281.076l-4.706-1.985c-1.284-.541-2.05-1.685-2.05-3.06 0-1.376.767-2.522 2.053-3.064L46.848 4.13a11.769 11.769 0 0 1 4.568-.919c1.556 0 3.11.305 4.558.916L97.7 21.728c1.284.542 2.05 1.686 2.05 3.06 0 1.377-.767 2.522-2.052 3.065zm-51.31-3.063c0-.44 1.728-1.716 5.026-1.716s5.027 1.275 5.027 1.716c0 .442-1.729 1.717-5.027 1.717s-5.027-1.276-5.027-1.717z" fill="#FFF" fill-rule="evenodd"/></svg>