<svg width="80" height="80" viewBox="0 0 80 80" xmlns="http://www.w3.org/2000/svg"><title>763E7CCE-AE71-440E-A433-AD69B8BB184E</title><g fill="#FFF" fill-rule="evenodd"><path d="M44 5.323h-8c-3.676 0-6.667 2.985-6.667 6.654a1.333 1.333 0 0 0 2.667 0 4.001 4.001 0 0 1 4-3.993h8c2.205 0 4 1.792 4 3.993a1.333 1.333 0 0 0 2.667 0c0-3.67-2.991-6.654-6.667-6.654zM73.333 15.969H6.667C2.99 15.969 0 18.954 0 22.623v7.984c0 1.804 1.081 3.258 2.667 3.782V73.19c0 3.67 2.99 6.654 6.666 6.654h61.334c3.676 0 6.666-2.985 6.666-6.654V38.591a1.333 1.333 0 0 0-2.666 0v34.6a4.001 4.001 0 0 1-4 3.992H9.333c-2.205 0-4-1.791-4-3.993V33.268c0-.734-.597-1.33-1.333-1.33-.823 0-1.333-.51-1.333-1.33v-7.985a4.001 4.001 0 0 1 4-3.993h66.666c2.206 0 4 1.792 4 3.993v7.984c0 .808-.524 1.33-1.333 1.33h-6.667v-5.322a2.667 2.667 0 0 0-2.666-2.662H64a2.667 2.667 0 0 0-2.667 2.662v5.323H18.667v-5.323A2.667 2.667 0 0 0 16 23.953h-2.667a2.667 2.667 0 0 0-2.666 2.662v5.323H9.389a1.332 1.332 0 1 0 0 2.661H12c.736 0 1.333-.596 1.333-1.33v-6.654H16v6.653c0 .735.597 1.331 1.333 1.331h45.334c.736 0 1.333-.596 1.333-1.33v-6.654h2.667v6.653c0 .735.597 1.331 1.333 1.331h8c2.28 0 4-1.717 4-3.992v-7.985c0-3.668-2.99-6.653-6.667-6.653z"/><path d="M25.333 13.307c.736 0 1.334-.596 1.334-1.33 0-4.788 4.535-9.315 9.333-9.315h8c4.885 0 9.333 4.439 9.333 9.315a1.333 1.333 0 0 0 2.667 0C56 5.597 50.392 0 44 0h-8c-6.28 0-12 5.709-12 11.977 0 .734.597 1.33 1.333 1.33zM36 69.198h8c.736 0 1.333-.596 1.333-1.33v-6.654H52c.736 0 1.333-.596 1.333-1.331v-7.984c0-.735-.597-1.331-1.333-1.331h-6.667v-6.654c0-.734-.597-1.33-1.333-1.33h-8c-.736 0-1.333.596-1.333 1.33v6.654H28c-.736 0-1.333.596-1.333 1.33v7.985c0 .735.597 1.33 1.333 1.33h6.667v6.654c0 .735.597 1.331 1.333 1.331zm-6.667-10.646V53.23H36c.736 0 1.333-.596 1.333-1.33v-6.654h5.334V51.9c0 .734.597 1.33 1.333 1.33h6.667v5.323H44c-.736 0-1.333.596-1.333 1.33v6.655h-5.334v-6.654c0-.734-.597-1.33-1.333-1.33h-6.667zM62.667 37.26c-.736 0-1.334.597-1.334 1.331v1.331A2.667 2.667 0 0 0 64 42.584h2.667a2.667 2.667 0 0 0 2.667-2.662v-1.33a1.333 1.333 0 0 0-2.667 0v1.33H64v-1.33c0-.735-.597-1.331-1.333-1.331zM12 37.26c-.736 0-1.333.597-1.333 1.331v1.331a2.667 2.667 0 0 0 2.666 2.662H16a2.667 2.667 0 0 0 2.667-2.662v-1.33a1.333 1.333 0 0 0-2.667 0v1.33h-2.667v-1.33c0-.735-.597-1.331-1.333-1.331z"/></g></svg>