<svg width="77" height="85" viewBox="0 0 77 85" xmlns="http://www.w3.org/2000/svg"><title>17E4149E-2FEF-471E-94FC-4F79806C39F9</title><g fill="#FFF" fill-rule="evenodd"><path d="M72.962 0H4.038C1.812 0 0 1.8 0 4.012v76.976C0 83.199 1.812 85 4.038 85h68.924C75.188 85 77 83.2 77 80.988V4.012C77 1.801 75.188 0 72.962 0zM4.038 2.833h68.924c.654 0 1.186.529 1.186 1.179v37.071H2.852V4.012c0-.65.532-1.179 1.186-1.179zm68.924 79.334H4.038a1.183 1.183 0 0 1-1.186-1.179V43.917h71.296v37.071c0 .65-.532 1.179-1.186 1.179z"/><path d="M30.665 25.5h15.67c2.757 0 4.998-2.227 4.998-4.965v-2.118A1.42 1.42 0 0 0 49.907 17a1.42 1.42 0 0 0-1.426 1.417v2.118a2.141 2.141 0 0 1-2.146 2.132h-15.67a2.141 2.141 0 0 1-2.146-2.132v-2.118A1.42 1.42 0 0 0 27.093 17a1.42 1.42 0 0 0-1.426 1.417v2.118c0 2.738 2.241 4.965 4.998 4.965zM49.907 58.083a1.42 1.42 0 0 0-1.426 1.417v2.118a2.141 2.141 0 0 1-2.146 2.132h-15.67a2.141 2.141 0 0 1-2.146-2.132V59.5a1.42 1.42 0 0 0-1.426-1.417 1.42 1.42 0 0 0-1.426 1.417v2.118c0 2.738 2.241 4.965 4.998 4.965h15.67c2.757 0 4.998-2.227 4.998-4.965V59.5a1.42 1.42 0 0 0-1.426-1.417z"/></g></svg>