<svg width="64" height="84" viewBox="0 0 64 84" xmlns="http://www.w3.org/2000/svg"><title>3092AD1E-741F-4371-8D18-2752D9F59C37</title><g fill="#FFF" fill-rule="evenodd"><path d="M63.6 16.364L47.553.399A1.37 1.37 0 0 0 46.587 0H4.285C1.922 0 0 1.913 0 4.263v75.474C0 82.087 1.922 84 4.285 84h55.43C62.078 84 64 82.087 64 79.737v-62.41c0-.362-.144-.708-.4-.963zM47.953 4.646l11.377 11.32h-9.827c-.854 0-1.55-.692-1.55-1.543V4.646zm11.761 76.633H4.285c-.855 0-1.55-.692-1.55-1.542V4.263c0-.85.695-1.542 1.55-1.542h40.934v11.702c0 2.351 1.923 4.264 4.285 4.264h11.761v61.05c0 .85-.695 1.542-1.55 1.542z"/><path d="M10.12 11.43h10.21c.756 0 1.368-.61 1.368-1.36 0-.752-.612-1.362-1.368-1.362H10.12c-.756 0-1.368.61-1.368 1.361 0 .752.612 1.36 1.368 1.36zM10.12 18.687h16.045c.755 0 1.368-.61 1.368-1.36 0-.752-.613-1.362-1.368-1.362H10.12c-.756 0-1.368.61-1.368 1.361 0 .752.612 1.36 1.368 1.36zM21.88 28.937c0 .752.613 1.361 1.368 1.361h17.504c.755 0 1.368-.61 1.368-1.36 0-.752-.613-1.361-1.368-1.361H23.248c-.755 0-1.368.609-1.368 1.36zM53.88 34.834H10.12c-.756 0-1.368.609-1.368 1.36 0 .752.612 1.361 1.368 1.361h43.76c.756 0 1.368-.61 1.368-1.36 0-.752-.612-1.361-1.368-1.361zM36.376 60.959h-10.21c-.756 0-1.368.61-1.368 1.36 0 .752.612 1.361 1.367 1.361h10.211c.755 0 1.368-.609 1.368-1.36 0-.752-.613-1.361-1.368-1.361zM36.376 68.216h-10.21c-.756 0-1.368.61-1.368 1.36 0 .752.612 1.361 1.367 1.361h10.211c.755 0 1.368-.609 1.368-1.36 0-.752-.613-1.361-1.368-1.361zM53.88 42.09H10.12c-.756 0-1.368.61-1.368 1.361 0 .752.612 1.361 1.368 1.361h43.76c.756 0 1.368-.61 1.368-1.36 0-.752-.612-1.361-1.368-1.361zM53.88 49.348H10.12c-.756 0-1.368.609-1.368 1.36 0 .752.612 1.361 1.368 1.361h43.76c.756 0 1.368-.61 1.368-1.36 0-.752-.612-1.361-1.368-1.361zM48.046 59.508c-3.972 0-7.203 3.214-7.203 7.166 0 3.951 3.231 7.166 7.203 7.166 3.97 0 7.202-3.215 7.202-7.166 0-3.952-3.231-7.166-7.202-7.166zm0 12.17c-2.773 0-5.029-2.245-5.029-5.004 0-2.759 2.256-5.004 5.029-5.004 2.772 0 5.028 2.245 5.028 5.004 0 2.759-2.256 5.003-5.028 5.003z"/><path d="M48.046 64.64a2.041 2.041 0 0 0-2.044 2.034c0 1.121.917 2.033 2.044 2.033a2.041 2.041 0 0 0 2.043-2.033 2.041 2.041 0 0 0-2.043-2.034z"/></g></svg>