<svg width="90" height="80" viewBox="0 0 90 80" xmlns="http://www.w3.org/2000/svg"><title>C706D6D1-0E38-4340-B37F-C5C8FD03DD18</title><g fill="#FFF" fill-rule="evenodd"><path d="M30.073 24.224l4.155-3.18 4.156 3.18a1.432 1.432 0 0 0 1.74 0l4.158-3.18 4.156 3.18a1.432 1.432 0 0 0 2.013-.273 1.446 1.446 0 0 0-.272-2.021l-5.027-3.847a1.432 1.432 0 0 0-1.74 0l-4.157 3.18-4.157-3.18a1.432 1.432 0 0 0-1.74 0L28.33 21.93a1.447 1.447 0 0 0-.271 2.021c.48.634 1.382.756 2.013.273z"/><path d="M88.564 7.788h-11.79c-.794 0-1.437.646-1.437 1.443 0 .796.643 1.442 1.436 1.442h10.355v62.02c0 2.385-1.933 4.326-4.309 4.326H7.181c-2.376 0-4.309-1.94-4.309-4.327V2.981h56.681v14.711c0 .797.643 1.443 1.436 1.443h14.65v53.557c0 .797.642 1.443 1.435 1.443h5.745c.793 0 1.436-.646 1.436-1.443 0-.796-.643-1.442-1.436-1.442h-4.308V17.692c0-.048-.003-.096-.008-.144-.003-.035-.01-.07-.015-.104l-.006-.036a1.4 1.4 0 0 0-.03-.123l-.004-.013a1.456 1.456 0 0 0-.043-.122l-.004-.01a1.438 1.438 0 0 0-.052-.11l-.008-.018a1.47 1.47 0 0 0-.057-.095l-.016-.027a1.425 1.425 0 0 0-.06-.082l-.024-.031a1.454 1.454 0 0 0-.073-.081l-.02-.024L62.004.518l-.023-.02a1.452 1.452 0 0 0-.08-.074L61.87.401a1.485 1.485 0 0 0-.082-.061l-.026-.017a1.38 1.38 0 0 0-.095-.056L61.65.258a1.393 1.393 0 0 0-.11-.052l-.01-.004a1.441 1.441 0 0 0-.121-.044 1.385 1.385 0 0 0-.136-.034L61.237.12a1.421 1.421 0 0 0-.248-.023H1.437A1.44 1.44 0 0 0 0 1.538v71.154c0 3.977 3.221 7.212 7.18 7.212h75.64c3.959 0 7.18-3.235 7.18-7.212V9.231c0-.797-.643-1.443-1.436-1.443zM62.426 5.02l11.181 11.23H62.426V5.02z"/><path d="M33.51 64.904H12.927a1.44 1.44 0 0 0-1.437 1.442 1.44 1.44 0 0 0 1.437 1.442H33.51a1.44 1.44 0 0 0 1.436-1.442 1.44 1.44 0 0 0-1.436-1.442zM65.585 64.904H45a1.44 1.44 0 0 0-1.436 1.442A1.44 1.44 0 0 0 45 67.788h20.585c.793 0 1.436-.645 1.436-1.442 0-.797-.643-1.442-1.436-1.442zM65.585 56.25H45a1.44 1.44 0 0 0-1.436 1.442A1.44 1.44 0 0 0 45 59.135h20.585c.793 0 1.436-.646 1.436-1.443 0-.796-.643-1.442-1.436-1.442zM65.585 47.596H45a1.44 1.44 0 0 0-1.436 1.442A1.44 1.44 0 0 0 45 50.481h20.585c.793 0 1.436-.646 1.436-1.443 0-.796-.643-1.442-1.436-1.442zM33.51 45.673a1.44 1.44 0 0 0 1.437-1.442v-3.846a1.44 1.44 0 0 0-1.436-1.443H12.926a1.44 1.44 0 0 0-1.437 1.443v17.307a1.44 1.44 0 0 0 1.437 1.443H33.51a1.44 1.44 0 0 0 1.436-1.443V50a1.44 1.44 0 0 0-1.436-1.442A1.44 1.44 0 0 0 32.074 50v6.25H14.362V41.827h17.712v2.404a1.44 1.44 0 0 0 1.437 1.442zM65.585 38.942H45a1.44 1.44 0 0 0-1.436 1.443A1.44 1.44 0 0 0 45 41.827h20.585c.793 0 1.436-.646 1.436-1.442 0-.797-.643-1.443-1.436-1.443zM65.585 30.288h-52.66a1.44 1.44 0 0 0-1.436 1.443 1.44 1.44 0 0 0 1.437 1.442h52.66c.792 0 1.435-.645 1.435-1.442 0-.797-.643-1.443-1.436-1.443z"/></g></svg>